<svg version="1.2" xmlns="http://www.w3.org/2000/svg" viewBox="0 0 202 23" width="202" height="23">
	<title>Novo Projeto</title>
	<defs>
		<clipPath clipPathUnits="userSpaceOnUse" id="cp1">
			<path d="m0 0h202v23h-202z"/>
		</clipPath>
	</defs>
	<style>
		.s0 { fill: #ffffff } 
		.s1 { fill: #00bfa6 } 
		.s2 { fill: #2f2e41 } 
	</style>
	<g id="Prancheta 1" clip-path="url(#cp1)">
		<path id="D ta.integrity" class="s0" aria-label="D ta.integrity"  d="m6 20h-5.2v-17.5h5.2q1.8 0 3.1 0.7 1.3 0.6 2 1.8 0.7 1.3 0.7 3v6.5q0 1.7-0.7 2.9-0.7 1.2-2 1.9-1.3 0.7-3.1 0.7zm-2.2-14.8v12h2.2q1.3 0 2.1-0.7 0.7-0.7 0.7-2v-6.5q0-1.3-0.7-2-0.8-0.8-2.1-0.8zm36.5 14.8h-3.9q-1.8 0-2.9-1.1-1.1-1-1.1-2.9v-6.5h-3.6v-2.7h3.6v-3.7h3v3.7h5.1v2.7h-5.1v6.5q0 1.3 1.3 1.3h3.6zm7.6 0.2q-2 0-3.2-1.1-1.1-1-1.1-2.9 0-1.9 1.2-3 1.3-1 3.7-1h3.3v-1.1q0-1-0.6-1.5-0.6-0.6-1.7-0.6-1 0-1.7 0.5-0.6 0.4-0.7 1.1h-2.9q0.2-1.8 1.6-2.9 1.5-1.2 3.8-1.2 2.4 0 3.8 1.3 1.4 1.2 1.4 3.2v9h-2.9v-2.3h-0.5l0.5-0.7q0 1.5-1.1 2.4-1.1 0.8-2.9 0.8zm1-2.2q1.3 0 2.1-0.7 0.8-0.6 0.8-1.7v-1.6h-3.2q-0.9 0-1.5 0.6-0.5 0.5-0.5 1.4 0 0.9 0.6 1.4 0.6 0.6 1.7 0.6zm14.9 2.2q-1 0-1.6-0.6-0.6-0.6-0.6-1.6 0-1 0.6-1.6 0.6-0.7 1.6-0.7 1 0 1.6 0.7 0.7 0.6 0.7 1.6 0 1-0.7 1.6-0.6 0.6-1.6 0.6zm20.6-0.2h-11.6v-2.7h4.6v-7.8h-4v-2.7h6.9v10.5h4.1zm-5.8-15.5q-0.9 0-1.4-0.4-0.5-0.5-0.5-1.3 0-0.8 0.5-1.2 0.5-0.5 1.4-0.5 1 0 1.5 0.5 0.5 0.4 0.5 1.2 0 0.8-0.5 1.3-0.5 0.4-1.5 0.4zm11.7 15.5h-3v-13.2h2.9v2.5h0.8l-0.8 0.7q0-1.7 0.9-2.6 1-0.9 2.6-0.9 2 0 3.1 1.3 1.2 1.3 1.2 3.5v8.7h-3v-8.4q0-1.2-0.6-1.8-0.6-0.7-1.8-0.7-1.1 0-1.7 0.7-0.6 0.6-0.6 1.9zm22 0h-3.9q-1.8 0-2.9-1.1-1.1-1-1.1-2.9v-6.5h-3.6v-2.7h3.6v-3.7h3v3.7h5.1v2.7h-5.1v6.5q0 1.3 1.3 1.3h3.6zm9.1 0.2q-1.6 0-2.9-0.6-1.2-0.7-1.9-1.8-0.7-1.2-0.7-2.8v-3.3q0-1.5 0.7-2.7 0.7-1.2 1.9-1.8 1.3-0.7 2.9-0.7 1.7 0 2.9 0.7 1.3 0.6 1.9 1.8 0.7 1.2 0.7 2.7v2.4h-8.1v0.9q0 1.4 0.7 2.2 0.6 0.6 2 0.6 1 0 1.6-0.3 0.6-0.3 0.8-1h2.9q-0.3 1.7-1.8 2.7-1.5 1-3.6 1zm2.8-8l-0.2 0.2v-0.7q0-1.4-0.6-2.1-0.7-0.7-2-0.7-1.3 0-1.9 0.7-0.7 0.8-0.7 2.1v0.5zm12 12.2h-4v-2.5h3.9q1 0 1.5-0.5 0.5-0.5 0.5-1.4v-1l0.1-2.5h-0.7l0.7-0.6q0 1.6-1 2.5-0.9 0.9-2.5 0.9-2 0-3.2-1.4-1.2-1.4-1.2-3.7v-2.6q0-2.3 1.2-3.6 1.2-1.4 3.2-1.4 1.6 0 2.5 0.9 1 0.9 1 2.5l-0.7-0.6h0.7l-0.1-2.6h3v13.2q0 2-1.3 3.2-1.3 1.2-3.6 1.2zm-0.5-7.7q1.1 0 1.8-0.7 0.6-0.7 0.6-1.9v-2.3q0-1.2-0.6-1.9-0.7-0.7-1.8-0.7-1.2 0-1.8 0.7-0.6 0.6-0.6 1.9v2.3q0 1.2 0.6 1.9 0.6 0.7 1.8 0.7zm12.5 3.3h-3v-13.2h2.8v2.6h0.8l-0.9 1.5q0-2.1 1-3.2 0.9-1.1 2.8-1.1 2.1 0 3.4 1.3 1.2 1.3 1.2 3.7v0.9h-3.2v-0.7q0-1.3-0.6-2-0.7-0.7-1.8-0.7-1.2 0-1.9 0.7-0.6 0.7-0.6 2zm22.6 0h-11.6v-2.8h4.6v-7.7h-4v-2.7h6.9v10.4h4.1zm-5.8-15.4q-0.9 0-1.4-0.4-0.6-0.5-0.6-1.3 0-0.8 0.6-1.2 0.5-0.5 1.4-0.5 0.9 0 1.4 0.5 0.6 0.4 0.6 1.2 0 0.8-0.6 1.3-0.5 0.4-1.4 0.4zm19.2 15.4h-3.8q-1.9 0-3-1-1-1.1-1-2.9v-6.5h-3.6v-2.8h3.6v-3.7h3v3.7h5.1v2.8h-5.1v6.5q0 1.2 1.2 1.2h3.6zm9.1 4.3h-3.2l1.9-5-4.9-12.5h3.3l2.4 6.8q0.2 0.5 0.4 1.3 0.2 0.8 0.3 1.3 0.1-0.5 0.3-1.3 0.2-0.8 0.4-1.3l2.3-6.8h3.1z"/>
		<path id="Layer" fill-rule="evenodd" class="s1" d="m21.3 12c-2.2 0-4.1-1.7-4.1-3.8 0-2.2 1.9-3.9 4.1-3.9 2.2 0 4.1 1.7 4.1 3.9 0 2.1-1.9 3.8-4.1 3.8zm3-3.8c0-1.6-1.4-2.9-3-2.9-1.6 0-3 1.3-3 2.9 0 1.5 1.4 2.8 3 2.8 1.6 0 3-1.3 3-2.8z"/>
		<path id="Layer" fill-rule="evenodd" class="s1" d="m21.3 11.9c-2.2 0-4.1-1.8-4.1-4 0-2.1 1.9-3.9 4.1-3.9 2.3 0 4.1 1.8 4.1 3.9 0 2.2-1.8 4-4.1 4zm3-4c0-1.6-1.3-2.9-3-2.9-1.6 0-3 1.3-3 2.9 0 1.7 1.4 3 3 3 1.7 0 3-1.3 3-3z"/>
		<path id="Layer" class="s0" d="m25.3 19.6h-7.7c-0.7 0-1.4-0.3-1.8-0.7-0.5-0.4-0.8-1-0.8-1.6v-6.9c0-0.5 0.2-0.9 0.5-1.2 0.3-0.3 0.8-0.4 1.3-0.4h9.3c0.4 0 0.9 0.1 1.2 0.4 0.3 0.3 0.5 0.7 0.5 1.2v6.9c0 0.6-0.3 1.2-0.7 1.6-0.5 0.4-1.2 0.7-1.8 0.7z"/>
		<path id="Layer" class="s2" d="m22.9 13.3q0-0.3-0.2-0.7-0.2-0.3-0.6-0.5-0.4-0.1-0.8-0.1-0.4 0-0.7 0.2-0.4 0.2-0.6 0.5-0.1 0.3-0.1 0.7 0 0.3 0.2 0.7 0.2 0.3 0.6 0.4v2.2h1.3v-2.2q0.4-0.1 0.6-0.5 0.3-0.3 0.3-0.7z"/>
		<path id="Layer" class="s2" d="m22.9 13.3q0-0.3-0.2-0.7-0.2-0.3-0.6-0.5-0.4-0.1-0.8-0.1-0.4 0-0.7 0.2-0.4 0.2-0.6 0.5-0.1 0.3-0.1 0.7 0 0.3 0.2 0.7 0.2 0.3 0.6 0.4v2.2h1.3v-2.2q0.4-0.1 0.6-0.5 0.3-0.3 0.3-0.7z"/>
	</g>
</svg>